<svg width="24" height="24" viewBox="0 0 24 24" fill="none" xmlns="http://www.w3.org/2000/svg">
<path d="M10 2C8.98215 2 8.15151 2.76268 8.02539 3.74609L4.03711 7.25586C2.7427 8.39431 2 10.0361 2 11.7598V17C2 18.645 3.35503 20 5 20H8C8 21.105 8.895 22 10 22H18C19.105 22 20 21.105 20 20V19H10V11.5254L11.4355 9.10938C12.1993 7.82504 12.1647 6.247 11.4258 5H18V6H20V4C20 2.895 19.105 2 18 2H10ZM9.18945 5.38477L9.44336 5.65234C10.0735 6.31413 10.1839 7.30237 9.7168 8.08789L8 10.9746V18H5C4.43497 18 4 17.565 4 17V11.7598C4 10.6095 4.49383 9.51736 5.35742 8.75781L9.18945 5.38477ZM17 7V9H21V7H17ZM16 10V12H22V10H16ZM16 13V15H22V13H16ZM17 16V18H21V16H17Z" fill="white"/>
</svg>
