<svg width="24" height="24" viewBox="0 0 24 24" fill="none" xmlns="http://www.w3.org/2000/svg">
<path d="M3 3C1.90694 3 1 3.90694 1 5V19C1 20.0931 1.90694 21 3 21H21C22.0931 21 23 20.0931 23 19V7C23 5.90694 22.0931 5 21 5H13.6172L13.1719 4.10742L13.1699 4.10547C12.8323 3.43058 12.1373 3 11.3828 3H3ZM3 5H11.3809L12.3828 7H21V19H19V18H17V19H7V18H5V19H3V5ZM9 8C8.46957 8 7.96086 8.21071 7.58579 8.58579C7.21071 8.96086 7 9.46957 7 10C7 10.5304 7.21071 11.0391 7.58579 11.4142C7.96086 11.7893 8.46957 12 9 12C9.53043 12 10.0391 11.7893 10.4142 11.4142C10.7893 11.0391 11 10.5304 11 10C11 9.46957 10.7893 8.96086 10.4142 8.58579C10.0391 8.21071 9.53043 8 9 8ZM15 10V12H19V10H15ZM9 13C6.815 13 5 13.9088 5 15.2168V16H13V15.2168C13 13.9088 11.185 13 9 13ZM15 14V16H19V14H15Z" fill="white"/>
</svg>
