<svg width="24" height="24" viewBox="0 0 24 24" fill="none" xmlns="http://www.w3.org/2000/svg">
<path d="M11.5 1C9.506 1 7.88867 2.61633 7.88867 4.61133C7.88867 5.63093 8.31874 6.54099 9 7.19336V11V14.627L7.3457 13.8555C6.40498 13.4165 5.27938 13.6281 4.5625 14.3789L3.00781 16.0078L9.12109 22.1211C9.6834 22.6834 10.4463 23 11.2422 23H18C19.645 23 21 21.645 21 20V13.1934C21 12.2237 20.2871 11.3804 19.3301 11.2207H19.3281L14 10.332V7.19336C14.6814 6.54076 15.1094 5.63037 15.1094 4.61133C15.1104 2.61633 13.494 1 11.5 1ZM11 5H12V12.0273L19 13.1953V20C19 20.565 18.565 21 18 21H11.2422C10.9761 21 10.7229 20.8947 10.5352 20.707L5.80273 15.9746L6.00781 15.7598C6.13693 15.6245 6.33073 15.589 6.5 15.668L11 17.7676V15V11V5Z" fill="white"/>
</svg>
