<svg width="24" height="24" viewBox="0 0 24 24" fill="none" xmlns="http://www.w3.org/2000/svg">
<path d="M12 2C6.5 2 2 6.5 2 12C2 17.5 6.5 22 12 22C17.5 22 22 17.5 22 12C22 6.5 17.5 2 12 2ZM12 4C16.4 4 20 7.6 20 12C20 16.4 16.4 20 12 20C7.6 20 4 16.4 4 12C4 7.6 7.6 4 12 4ZM17 7L9.90039 9.90039L7 17L14.0996 14.0996L17 7ZM12 10.9004C12.6 10.9004 13.0996 11.4 13.0996 12C13.0996 12.6 12.6 13.0996 12 13.0996C11.4 13.0996 10.9004 12.6 10.9004 12C10.9004 11.4 11.4 10.9004 12 10.9004Z" fill="white"/>
</svg>
