<svg width="24" height="24" viewBox="0 0 24 24" fill="none" xmlns="http://www.w3.org/2000/svg">
<path d="M5 3C3.90694 3 3 3.90694 3 5V19C3 20.0931 3.90694 21 5 21H15V19H5V5H19V9H21V5C21 3.90694 20.0931 3 19 3H5ZM9 7V9H15V7H9ZM19.5508 11.3008V12.7285C19.2118 12.7715 17.3145 13.128 17.3145 15.418C17.3145 18.759 20.7734 17.769 20.7734 19.998C20.7734 21.114 20.0513 21.1426 19.9043 21.1426C19.7703 21.1426 18.8906 21.2139 18.8906 19.5059H17C17 22.3979 19.0982 22.6269 19.4102 22.6699V24H20.4121V22.6699C20.7501 22.6279 22.6621 22.3143 22.6621 19.9863C22.6621 16.7803 19.2041 17.3937 19.2031 15.4277C19.2031 14.3007 19.823 14.2656 19.957 14.2656C20.202 14.2656 20.7852 14.4805 20.7852 15.8535H22.6758C22.6758 13.2265 20.8796 12.8169 20.5586 12.7559V11.3008H19.5508Z" fill="white"/>
</svg>
