<svg width="24" height="24" viewBox="0 0 24 24" fill="none" xmlns="http://www.w3.org/2000/svg">
<path d="M4 3C2.897 3 2 3.897 2 5V9C2 10.103 2.897 11 4 11H8C9.103 11 10 10.103 10 9V5C10 3.897 9.103 3 8 3H4ZM12 4V6H13H21H22V4H21H13H12ZM5 6H7V8H5V6ZM12 8V10H13H18H19V8H18H13H12ZM4 13C2.897 13 2 13.897 2 15V19C2 20.103 2.897 21 4 21H8C9.103 21 10 20.103 10 19V15C10 13.897 9.103 13 8 13H4ZM12 14V16H13H21H22V14H21H13H12ZM6 16C6.552 16 7 16.448 7 17C7 17.552 6.552 18 6 18C5.448 18 5 17.552 5 17C5 16.448 5.448 16 6 16ZM12 18V20H13H18H19V18H18H13H12Z" fill="white"/>
</svg>
