<svg width="24" height="24" viewBox="0 0 24 24" fill="none" xmlns="http://www.w3.org/2000/svg">
<path d="M17 3C15.895 3 15 3.895 15 5V12L17 10H21C22.105 10 23 9.105 23 8V5C23 3.895 22.105 3 21 3H17ZM9.5 5C7.57885 5 6 6.57885 6 8.5C6 10.4212 7.57885 12 9.5 12C11.4212 12 13 10.4212 13 8.5C13 6.57885 11.4212 5 9.5 5ZM17 5H21V8H17V5ZM9.5 7C10.3403 7 11 7.65973 11 8.5C11 9.34027 10.3403 10 9.5 10C8.65973 10 8 9.34027 8 8.5C8 7.65973 8.65973 7 9.5 7ZM9.5 14C8.01289 14 6.30157 14.4216 4.84961 15.127C4.12363 15.4796 3.46422 15.902 2.93945 16.4395C2.41468 16.9769 2 17.6777 2 18.5V21H17V20V18.5C17 17.6777 16.5853 16.9769 16.0605 16.4395C15.5358 15.902 14.8764 15.4796 14.1504 15.127C12.6984 14.4216 10.9871 14 9.5 14ZM9.5 16C10.5799 16 12.1191 16.3641 13.2754 16.9258C13.8535 17.2066 14.336 17.536 14.6289 17.8359C14.9218 18.1359 15 18.3563 15 18.5V19H4V18.5C4 18.3563 4.07821 18.1359 4.37109 17.8359C4.66398 17.536 5.14646 17.2066 5.72461 16.9258C6.8809 16.3641 8.42011 16 9.5 16Z" fill="white"/>
</svg>
